<?xml version="1.0" encoding="UTF-8" standalone="no"?>
<!-- Created with Inkscape (http://www.inkscape.org/) -->

<svg
   xmlns:dc="http://purl.org/dc/elements/1.1/"
   xmlns:cc="http://creativecommons.org/ns#"
   xmlns:rdf="http://www.w3.org/1999/02/22-rdf-syntax-ns#"
   xmlns:svg="http://www.w3.org/2000/svg"
   xmlns="http://www.w3.org/2000/svg"
   xmlns:xlink="http://www.w3.org/1999/xlink"
   xmlns:sodipodi="http://sodipodi.sourceforge.net/DTD/sodipodi-0.dtd"
   xmlns:inkscape="http://www.inkscape.org/namespaces/inkscape"
   width="230"
   height="128"
   id="svg2"
   version="1.1"
   inkscape:version="0.48.4 r9939"
   sodipodi:docname="Bear Sleeping.svg"
   inkscape:export-filename="C:\Users\JoeDono\Documents\Projects\1GAM Projects\07-Jul-1GAM\Assets in Progress\Bear Sleeping.png"
   inkscape:export-xdpi="90"
   inkscape:export-ydpi="90">
  <defs
     id="defs4">
    <linearGradient
       id="linearGradient3834">
      <stop
         style="stop-color:#934d00;stop-opacity:1;"
         offset="0"
         id="stop3836" />
      <stop
         style="stop-color:#000000;stop-opacity:1;"
         offset="1"
         id="stop3838" />
    </linearGradient>
    <linearGradient
       id="linearGradient3776">
      <stop
         style="stop-color:#a0a0a0;stop-opacity:1;"
         offset="0"
         id="stop3778" />
      <stop
         style="stop-color:#ffffff;stop-opacity:1;"
         offset="1"
         id="stop3780" />
    </linearGradient>
    <linearGradient
       inkscape:collect="always"
       xlink:href="#linearGradient3776"
       id="linearGradient3782"
       x1="421.61749"
       y1="735.32129"
       x2="431.2038"
       y2="751.86255"
       gradientUnits="userSpaceOnUse"
       gradientTransform="matrix(0.3737444,0.05840218,-0.06282812,0.34741585,-67.753114,765.86184)" />
    <linearGradient
       inkscape:collect="always"
       xlink:href="#linearGradient3776"
       id="linearGradient3786"
       gradientUnits="userSpaceOnUse"
       gradientTransform="matrix(0.37811113,0.0239568,-0.02577234,0.35147497,-92.52983,777.7087)"
       x1="421.61749"
       y1="735.32129"
       x2="431.2038"
       y2="751.86255" />
    <linearGradient
       inkscape:collect="always"
       xlink:href="#linearGradient3776"
       id="linearGradient3790"
       gradientUnits="userSpaceOnUse"
       gradientTransform="matrix(0.37866718,-0.01450247,0.01560153,0.35199186,-118.26247,793.49309)"
       x1="421.61749"
       y1="735.32129"
       x2="431.2038"
       y2="751.86255" />
    <linearGradient
       inkscape:collect="always"
       xlink:href="#linearGradient3776"
       id="linearGradient3800"
       gradientUnits="userSpaceOnUse"
       gradientTransform="matrix(0.37876403,-0.01212162,0.01304024,0.35208189,-90.00207,793.01381)"
       x1="421.61749"
       y1="735.32129"
       x2="431.2038"
       y2="751.86255" />
    <linearGradient
       inkscape:collect="always"
       xlink:href="#linearGradient3776"
       id="linearGradient3802"
       gradientUnits="userSpaceOnUse"
       gradientTransform="matrix(0.37792819,0.02633327,-0.02832892,0.35130491,-64.15519,777.39156)"
       x1="421.61749"
       y1="735.32129"
       x2="431.2038"
       y2="751.86255" />
    <linearGradient
       inkscape:collect="always"
       xlink:href="#linearGradient3776"
       id="linearGradient3804"
       gradientUnits="userSpaceOnUse"
       gradientTransform="matrix(0.37331094,0.06075041,-0.06535432,0.34701294,-39.292852,765.70073)"
       x1="421.61749"
       y1="735.32129"
       x2="431.2038"
       y2="751.86255" />
    <linearGradient
       inkscape:collect="always"
       xlink:href="#linearGradient3776"
       id="linearGradient3814"
       gradientUnits="userSpaceOnUse"
       gradientTransform="matrix(0.37867532,-0.01431766,0.0154027,0.35199943,-14.403207,793.47182)"
       x1="421.61749"
       y1="735.32129"
       x2="431.2038"
       y2="751.86255" />
    <linearGradient
       inkscape:collect="always"
       xlink:href="#linearGradient3776"
       id="linearGradient3816"
       gradientUnits="userSpaceOnUse"
       gradientTransform="matrix(0.37809754,0.02414134,-0.02597086,0.35146234,11.338335,777.7)"
       x1="421.61749"
       y1="735.32129"
       x2="431.2038"
       y2="751.86255" />
    <linearGradient
       inkscape:collect="always"
       xlink:href="#linearGradient3776"
       id="linearGradient3818"
       gradientUnits="userSpaceOnUse"
       gradientTransform="matrix(0.37371135,0.05858458,-0.06302435,0.34738513,36.121739,765.86523)"
       x1="421.61749"
       y1="735.32129"
       x2="431.2038"
       y2="751.86255" />
    <linearGradient
       inkscape:collect="always"
       xlink:href="#linearGradient3776"
       id="linearGradient3828"
       gradientUnits="userSpaceOnUse"
       gradientTransform="matrix(0.37879454,-0.01126779,0.01212171,0.35211025,18.18134,791.78991)"
       x1="421.61749"
       y1="735.32129"
       x2="431.2038"
       y2="751.86255" />
    <linearGradient
       inkscape:collect="always"
       xlink:href="#linearGradient3776"
       id="linearGradient3830"
       gradientUnits="userSpaceOnUse"
       gradientTransform="matrix(0.37785838,0.02718512,-0.0292453,0.35124002,44.0689,776.22597)"
       x1="421.61749"
       y1="735.32129"
       x2="431.2038"
       y2="751.86255" />
    <linearGradient
       inkscape:collect="always"
       xlink:href="#linearGradient3776"
       id="linearGradient3832"
       gradientUnits="userSpaceOnUse"
       gradientTransform="matrix(0.37315136,0.06159174,-0.0662594,0.3468646,68.961666,764.59122)"
       x1="421.61749"
       y1="735.32129"
       x2="431.2038"
       y2="751.86255" />
    <linearGradient
       inkscape:collect="always"
       xlink:href="#linearGradient3834"
       id="linearGradient3840"
       x1="400.86868"
       y1="522.18188"
       x2="191.67671"
       y2="185.00842"
       gradientUnits="userSpaceOnUse" />
    <linearGradient
       inkscape:collect="always"
       xlink:href="#linearGradient3834"
       id="linearGradient3850"
       x1="697.88055"
       y1="783.49316"
       x2="617.38403"
       y2="717.77887"
       gradientUnits="userSpaceOnUse"
       gradientTransform="matrix(0.37898844,0,0,0.3522905,-72.368524,774.04844)" />
    <linearGradient
       inkscape:collect="always"
       xlink:href="#linearGradient3834"
       id="linearGradient3858"
       x1="652.76208"
       y1="749.67352"
       x2="576.43469"
       y2="626.10211"
       gradientUnits="userSpaceOnUse"
       gradientTransform="matrix(0.37898844,0,0,0.3522905,-72.368524,774.04844)" />
    <linearGradient
       inkscape:collect="always"
       xlink:href="#linearGradient3834"
       id="linearGradient3866"
       x1="625.71429"
       y1="789.86218"
       x2="547.85712"
       y2="712.00507"
       gradientUnits="userSpaceOnUse"
       gradientTransform="matrix(0.37898844,0,0,0.3522905,-75.887701,774.80334)" />
    <linearGradient
       inkscape:collect="always"
       xlink:href="#linearGradient3834"
       id="linearGradient3874"
       x1="585.62195"
       y1="715.48657"
       x2="508.55191"
       y2="610.12939"
       gradientUnits="userSpaceOnUse"
       gradientTransform="matrix(0.37898844,0,0,0.3522905,-75.887701,774.80334)" />
    <linearGradient
       inkscape:collect="always"
       xlink:href="#linearGradient3834"
       id="linearGradient3882"
       x1="419.108"
       y1="762.0304"
       x2="350.80627"
       y2="708.10181"
       gradientUnits="userSpaceOnUse"
       gradientTransform="matrix(0.37898844,0,0,0.3522905,-75.887701,778.32624)" />
    <linearGradient
       inkscape:collect="always"
       xlink:href="#linearGradient3834"
       id="linearGradient3890"
       x1="376.3335"
       y1="731.81641"
       x2="296.43472"
       y2="612.88782"
       gradientUnits="userSpaceOnUse"
       gradientTransform="matrix(0.37898844,0,0,0.3522905,-75.887701,778.32624)" />
    <linearGradient
       inkscape:collect="always"
       xlink:href="#linearGradient3834"
       id="linearGradient3898"
       x1="318.12201"
       y1="717.98657"
       x2="243.19479"
       y2="614.77228"
       gradientUnits="userSpaceOnUse"
       gradientTransform="matrix(0.37898844,0,0,0.3522905,-75.887701,778.32624)" />
    <linearGradient
       inkscape:collect="always"
       xlink:href="#linearGradient3834"
       id="linearGradient3906"
       x1="347.85715"
       y1="755.93359"
       x2="286.07144"
       y2="708.43359"
       gradientUnits="userSpaceOnUse"
       gradientTransform="matrix(0.37898844,0,0,0.3522905,-75.887701,778.32624)" />
    <linearGradient
       inkscape:collect="always"
       xlink:href="#linearGradient3834"
       id="linearGradient3924"
       x1="803.21045"
       y1="487.04636"
       x2="704.89178"
       y2="354.7258"
       gradientUnits="userSpaceOnUse"
       gradientTransform="matrix(0.47680049,0,0,0.44937245,-180.36426,774.13124)" />
    <linearGradient
       inkscape:collect="always"
       xlink:href="#linearGradient3834"
       id="linearGradient3928"
       gradientUnits="userSpaceOnUse"
       gradientTransform="matrix(0.24074445,0,0,0.38118705,781.82798,-469.31643)"
       x1="803.21045"
       y1="487.04636"
       x2="704.89178"
       y2="354.7258" />
    <linearGradient
       inkscape:collect="always"
       xlink:href="#linearGradient3834"
       id="linearGradient3937"
       gradientUnits="userSpaceOnUse"
       gradientTransform="matrix(0.0750506,0,0,0.27660659,872.48475,-1187.7534)"
       x1="803.21045"
       y1="487.04636"
       x2="704.89178"
       y2="354.7258" />
    <linearGradient
       inkscape:collect="always"
       xlink:href="#linearGradient3776"
       id="linearGradient3960"
       gradientUnits="userSpaceOnUse"
       gradientTransform="matrix(0.37879454,-0.01126779,0.01212171,0.35211025,48.808235,733.41652)"
       x1="421.61749"
       y1="735.32129"
       x2="431.2038"
       y2="751.86255" />
    <linearGradient
       inkscape:collect="always"
       xlink:href="#linearGradient3776"
       id="linearGradient3964"
       gradientUnits="userSpaceOnUse"
       gradientTransform="matrix(0.37879454,-0.01126779,0.01212171,0.35211025,43.592091,733.90583)"
       x1="421.61749"
       y1="735.32129"
       x2="431.2038"
       y2="751.86255" />
  </defs>
  <sodipodi:namedview
     id="base"
     pagecolor="#ffffff"
     bordercolor="#666666"
     borderopacity="1.0"
     inkscape:pageopacity="0.0"
     inkscape:pageshadow="2"
     inkscape:zoom="3.959798"
     inkscape:cx="92.752403"
     inkscape:cy="52.743432"
     inkscape:document-units="px"
     inkscape:current-layer="layer1"
     showgrid="false"
     inkscape:window-width="1920"
     inkscape:window-height="1018"
     inkscape:window-x="-8"
     inkscape:window-y="-8"
     inkscape:window-maximized="1" />
  <metadata
     id="metadata7">
    <rdf:RDF>
      <cc:Work
         rdf:about="">
        <dc:format>image/svg+xml</dc:format>
        <dc:type
           rdf:resource="http://purl.org/dc/dcmitype/StillImage" />
        <dc:title></dc:title>
      </cc:Work>
    </rdf:RDF>
  </metadata>
  <g
     inkscape:label="Layer 1"
     inkscape:groupmode="layer"
     id="layer1"
     transform="translate(0,-924.36218)">
    <path
       sodipodi:nodetypes="sssssss"
       inkscape:connector-curvature="0"
       id="path3792"
       d="m 56.636212,1026.9062 23.263017,9.03 c 2.21424,0.8595 4.26286,3.9922 4.17853,8.8708 -0.0843,4.8785 -2.04675,6.6386 -4.44598,6.6028 L 54.865374,1051.04 c -2.399228,-0.035 -2.796431,-10.5138 -2.712106,-15.3923 0.08433,-4.8787 2.268712,-9.601 4.482944,-8.7415 z"
       style="fill:url(#linearGradient3882);fill-opacity:1;stroke:none" />
    <path
       sodipodi:nodetypes="sssssss"
       inkscape:connector-curvature="0"
       id="path3764"
       d="m 50.905165,993.96324 c 8.902233,-0.74143 16.131353,-0.69166 16.928966,7.58336 l 2.222512,23.0583 c 0.79762,8.275 -4.736573,25.8098 -13.638804,26.5512 -8.902233,0.7415 -17.70161,-15.5995 -18.499221,-23.8747 l -2.222514,-23.0581 c -0.79762,-8.27505 6.306825,-9.51872 15.209061,-10.26006 z"
       style="fill:url(#linearGradient3890);fill-opacity:1;stroke:none" />
    <path
       sodipodi:nodetypes="sssssss"
       inkscape:connector-curvature="0"
       id="path3820"
       d="m 164.20901,1026.0122 23.23939,9.0824 c 2.21198,0.8645 4.25243,4.0018 4.15538,8.8803 -0.097,4.8782 -2.06407,6.634 -4.46319,6.5926 l -24.76537,-0.4256 c -2.39912,-0.041 -2.76899,-10.52 -2.67193,-15.3984 0.097,-4.8784 2.29375,-9.5958 4.50572,-8.7313 z"
       style="fill:url(#linearGradient3850);fill-opacity:1;stroke:none" />
    <path
       style="fill:url(#linearGradient3858);fill-opacity:1;stroke:none"
       d="m 158.37545,992.95667 c 8.90222,-0.74146 16.13135,-0.69161 16.92896,7.58333 l 2.22251,23.0583 c 0.79762,8.2752 -4.73657,25.8098 -13.6388,26.5512 -8.90223,0.7414 -17.70161,-15.5995 -18.49922,-23.8747 l -2.22251,-23.058 c -0.79762,-8.27512 6.30682,-9.51881 15.20906,-10.26013 z"
       id="path3766"
       inkscape:connector-curvature="0"
       sodipodi:nodetypes="sssssss" />
    <path
       sodipodi:nodetypes="sssss"
       inkscape:connector-curvature="0"
       id="path3822"
       d="m 188.14354,1044.6721 c 1.46116,-0.043 2.57994,-1.7495 2.6528,0.3673 0.0729,2.1166 -0.92859,7.2306 -2.38974,7.274 -1.46114,0.043 -2.8123,-5.0005 -2.88517,-7.1171 -0.0729,-2.1167 1.16096,-0.4808 2.62211,-0.5242 z"
       style="fill:url(#linearGradient3828);fill-opacity:1;stroke:#000000;stroke-width:0.25998691;stroke-linecap:butt;stroke-linejoin:round;stroke-miterlimit:4;stroke-opacity:1" />
    <path
       style="fill:url(#linearGradient3830);fill-opacity:1;stroke:#000000;stroke-width:0.25998691;stroke-linecap:butt;stroke-linejoin:round;stroke-miterlimit:4;stroke-opacity:1"
       d="m 183.36062,1044.8244 c 1.45754,0.1053 2.76972,-1.4776 2.59391,0.6339 -0.1758,2.1113 -1.77104,7.0935 -3.22859,6.9885 -1.45754,-0.1053 -2.2091,-5.2557 -2.03329,-7.367 0.17581,-2.1115 1.21042,-0.3603 2.66797,-0.2554 z"
       id="path3824"
       inkscape:connector-curvature="0"
       sodipodi:nodetypes="sssss" />
    <path
       sodipodi:nodetypes="sssss"
       inkscape:connector-curvature="0"
       id="path3826"
       d="m 179.1647,1044.62 c 1.4394,0.2375 2.91261,-1.2173 2.51429,0.8679 -0.39831,2.0851 -2.51285,6.8971 -3.95221,6.6596 -1.4394,-0.2376 -1.64243,-5.4322 -1.24411,-7.5173 0.3983,-2.0852 1.24265,-0.2479 2.68203,-0.011 z"
       style="fill:url(#linearGradient3832);fill-opacity:1;stroke:#000000;stroke-width:0.25998691;stroke-linecap:butt;stroke-linejoin:round;stroke-miterlimit:4;stroke-opacity:1" />
    <path
       sodipodi:type="arc"
       style="fill:url(#linearGradient3840);fill-opacity:1;stroke:none"
       id="path3755"
       sodipodi:cx="360.71429"
       sodipodi:cy="434.50504"
       sodipodi:rx="299.28571"
       sodipodi:ry="123.57143"
       d="m 660,434.50504 a 299.28571,123.57143 0 1 1 -598.571411,0 299.28571,123.57143 0 1 1 598.571411,0 z"
       transform="matrix(0.31295943,0,0,0.38487225,-18.231837,805.94089)" />
    <path
       style="fill:url(#linearGradient3866);fill-opacity:1;stroke:none"
       d="m 133.80179,1026.5094 23.32317,8.8949 c 2.21996,0.8466 4.28955,3.9674 4.23798,8.8465 -0.0516,4.879 -2.00216,6.6503 -4.4016,6.6284 l -24.7684,-0.2263 c -2.39941,-0.022 -2.86691,-10.4972 -2.81534,-15.3763 0.0516,-4.8789 2.20424,-9.6139 4.42419,-8.7672 z"
       id="path3806"
       inkscape:connector-curvature="0"
       sodipodi:nodetypes="sssssss" />
    <path
       style="fill:url(#linearGradient3814);fill-opacity:1;stroke:#000000;stroke-width:0.25998691;stroke-linecap:butt;stroke-linejoin:round;stroke-miterlimit:4;stroke-opacity:1"
       d="m 157.90932,1044.9759 c 1.4607,-0.055 2.56354,-1.7702 2.65613,0.3458 0.0927,2.116 -0.86116,7.2379 -2.32187,7.2931 -1.46068,0.055 -2.85879,-4.9777 -2.95138,-7.0937 -0.0926,-2.116 1.15644,-0.49 2.61712,-0.5452 z"
       id="path3808"
       inkscape:connector-curvature="0"
       sodipodi:nodetypes="sssss" />
    <path
       sodipodi:nodetypes="sssss"
       inkscape:connector-curvature="0"
       id="path3810"
       d="m 153.12799,1045.1665 c 1.45847,0.093 2.75585,-1.4997 2.59973,0.6131 -0.15612,2.1128 -1.70486,7.1075 -3.16334,7.0143 -1.45846,-0.093 -2.25799,-5.2377 -2.10186,-7.3505 0.15612,-2.1127 1.20701,-0.3699 2.66547,-0.2769 z"
       style="fill:url(#linearGradient3816);fill-opacity:1;stroke:#000000;stroke-width:0.25998691;stroke-linecap:butt;stroke-linejoin:round;stroke-miterlimit:4;stroke-opacity:1" />
    <path
       style="fill:url(#linearGradient3818);fill-opacity:1;stroke:#000000;stroke-width:0.25998691;stroke-linecap:butt;stroke-linejoin:round;stroke-miterlimit:4;stroke-opacity:1"
       d="m 148.93034,1044.9961 c 1.44155,0.2259 2.90114,-1.2407 2.52228,0.8475 -0.37885,2.0883 -2.44846,6.9172 -3.89001,6.6913 -1.44156,-0.2261 -1.69298,-5.4188 -1.31412,-7.507 0.37887,-2.0883 1.24031,-0.2578 2.68185,-0.031 z"
       id="path3812"
       inkscape:connector-curvature="0"
       sodipodi:nodetypes="sssss" />
    <path
       sodipodi:nodetypes="sssssss"
       inkscape:connector-curvature="0"
       id="path3768"
       d="m 140.27105,993.74244 c 8.86017,1.09338 15.90116,2.61726 14.72496,10.85316 l -3.27743,22.9492 c -1.17619,8.236 -10.7166,24.2135 -19.57676,23.1203 -8.86017,-1.0934 -13.58559,-18.8314 -12.40939,-27.0675 l 3.27743,-22.949 c 1.17619,-8.23607 8.40104,-7.99952 17.26119,-6.90616 z"
       style="fill:url(#linearGradient3874);fill-opacity:1;stroke:none" />
    <path
       sodipodi:nodetypes="sssss"
       inkscape:connector-curvature="0"
       id="path3794"
       d="m 80.619339,1045.5122 c 1.46104,-0.047 2.57537,-1.7553 2.65377,0.3612 0.0783,2.1166 -0.90973,7.2328 -2.37077,7.2795 -1.46103,0.046 -2.82534,-4.9942 -2.90373,-7.1107 -0.0784,-2.1164 1.1597,-0.4833 2.62073,-0.53 z"
       style="fill:url(#linearGradient3800);fill-opacity:1;stroke:#000000;stroke-width:0.25998691;stroke-linecap:butt;stroke-linejoin:round;stroke-miterlimit:4;stroke-opacity:1" />
    <path
       style="fill:url(#linearGradient3906);fill-opacity:1;stroke:none"
       d="m 30.074163,1026.4583 23.328183,8.8836 c 2.220436,0.8455 4.291801,3.9653 4.242976,8.8442 -0.04883,4.8791 -1.998409,6.6515 -4.397843,6.6307 l -24.768532,-0.2142 c -2.399436,-0.02 -2.872857,-10.4959 -2.824029,-15.3749 0.04883,-4.8789 2.198809,-9.6149 4.419245,-8.7694 z"
       id="rect3770"
       inkscape:connector-curvature="0"
       sodipodi:nodetypes="sssssss" />
    <path
       style="fill:url(#linearGradient3898);fill-opacity:1;stroke:none"
       d="m 36.319952,993.99406 c 8.860164,1.09338 15.901155,2.61726 14.724949,10.85314 l -3.277419,22.9492 c -1.176198,8.236 -10.716613,24.2135 -19.576771,23.1203 -8.860166,-1.0934 -13.585587,-18.8313 -12.409385,-27.0674 l 3.277424,-22.9491 c 1.176199,-8.23605 8.40104,-7.99951 17.261202,-6.90614 z"
       id="rect3759"
       inkscape:connector-curvature="0"
       sodipodi:nodetypes="sssssss" />
    <path
       style="fill:url(#linearGradient3802);fill-opacity:1;stroke:#000000;stroke-width:0.25998691;stroke-linecap:butt;stroke-linejoin:round;stroke-miterlimit:4;stroke-opacity:1"
       d="m 75.836829,1045.6752 c 1.45782,0.102 2.76586,-1.4839 2.59557,0.6281 -0.1703,2.1118 -1.75254,7.0974 -3.21036,6.9958 -1.4578,-0.102 -2.222793,-5.2507 -2.052497,-7.3625 0.170297,-2.1119 1.209477,-0.363 2.667287,-0.2614 z"
       id="path3796"
       inkscape:connector-curvature="0"
       sodipodi:nodetypes="sssss" />
    <path
       style="fill:url(#linearGradient3790);fill-opacity:1;stroke:#000000;stroke-width:0.25998691;stroke-linecap:butt;stroke-linejoin:round;stroke-miterlimit:4;stroke-opacity:1"
       d="m 54.192116,1044.913 c 1.460666,-0.055 2.562538,-1.7714 2.656323,0.3447 0.09379,2.1159 -0.857079,7.2382 -2.317741,7.2942 -1.460661,0.055 -2.861614,-4.9764 -2.955403,-7.0924 -0.09379,-2.1159 1.156157,-0.4906 2.616821,-0.5465 z"
       id="path3788"
       inkscape:connector-curvature="0"
       sodipodi:nodetypes="sssss" />
    <path
       sodipodi:nodetypes="sssss"
       inkscape:connector-curvature="0"
       id="path3798"
       d="m 71.640403,1045.4801 c 1.440004,0.2345 2.909416,-1.2236 2.516546,0.8624 -0.39287,2.086 -2.494845,6.9028 -3.934846,6.6685 -1.440002,-0.2343 -1.656582,-5.4285 -1.263711,-7.5146 0.392871,-2.086 1.242009,-0.2506 2.682011,-0.017 z"
       style="fill:url(#linearGradient3804);fill-opacity:1;stroke:#000000;stroke-width:0.25998691;stroke-linecap:butt;stroke-linejoin:round;stroke-miterlimit:4;stroke-opacity:1" />
    <path
       sodipodi:nodetypes="sssss"
       inkscape:connector-curvature="0"
       id="path3784"
       d="m 49.410896,1045.1061 c 1.458522,0.092 2.755004,-1.5011 2.600073,0.6118 -0.154927,2.1128 -1.700857,7.1082 -3.159377,7.0159 -1.458517,-0.092 -2.260949,-5.2366 -2.106023,-7.3496 0.154931,-2.1129 1.20681,-0.3705 2.665327,-0.2781 z"
       style="fill:url(#linearGradient3786);fill-opacity:1;stroke:#000000;stroke-width:0.25998691;stroke-linecap:butt;stroke-linejoin:round;stroke-miterlimit:4;stroke-opacity:1" />
    <path
       style="fill:url(#linearGradient3782);fill-opacity:1;stroke:#000000;stroke-width:0.25998691;stroke-linecap:butt;stroke-linejoin:round;stroke-miterlimit:4;stroke-opacity:1"
       d="m 45.213145,1044.9374 c 1.44168,0.2254 2.900444,-1.242 2.522763,0.8465 -0.377685,2.0885 -2.444567,6.9184 -3.886239,6.6931 -1.441672,-0.2253 -1.696043,-5.4179 -1.318358,-7.5063 0.377689,-2.0884 1.240161,-0.2585 2.681834,-0.033 z"
       id="rect3773"
       inkscape:connector-curvature="0"
       sodipodi:nodetypes="sssss" />
    <rect
       style="fill:url(#linearGradient3924);fill-opacity:1;stroke:none"
       id="rect3908"
       width="39.976219"
       height="47.209206"
       x="166.65826"
       y="947.73828"
       ry="17.022552" />
    <path
       sodipodi:nodetypes="sscss"
       inkscape:connector-curvature="0"
       id="path3962"
       d="m 213.55429,986.78811 c 1.46116,-0.0435 2.57993,-1.74942 2.6528,0.36729 0.0729,2.11661 -2.38975,7.27405 -2.38975,7.27405 0,0 -2.81229,-5.00053 -2.88515,-7.11714 -0.0729,-2.11671 1.16094,-0.48073 2.6221,-0.5242 z"
       style="fill:url(#linearGradient3964);fill-opacity:1;stroke:#000000;stroke-width:0.25998691;stroke-linecap:butt;stroke-linejoin:round;stroke-miterlimit:4;stroke-opacity:1" />
    <path
       style="fill:url(#linearGradient3960);fill-opacity:1;stroke:#000000;stroke-width:0.25998691;stroke-linecap:butt;stroke-linejoin:round;stroke-miterlimit:4;stroke-opacity:1"
       d="m 218.77043,986.29878 c 1.46116,-0.0435 2.57994,-1.74942 2.6528,0.3673 0.0729,2.11661 -2.38975,7.27411 -2.38975,7.27411 0,0 -2.81229,-5.00059 -2.88515,-7.1172 -0.0729,-2.11671 1.16095,-0.48073 2.6221,-0.52421 z"
       id="path3958"
       inkscape:connector-curvature="0"
       sodipodi:nodetypes="sscss" />
    <rect
       ry="14.439639"
       y="-322.0513"
       x="957.04535"
       height="40.045933"
       width="20.184656"
       id="rect3926"
       style="fill:url(#linearGradient3928);fill-opacity:1;stroke:none"
       transform="matrix(-0.09786967,0.99519924,-0.99843995,-0.05583608,0,0)" />
    <path
       style="fill:#000000;fill-opacity:1;stroke:none"
       d="m 228.4347,976.09758 c 1.22041,1.18589 -1.09618,5.565 -2.83725,5.565 -1.74108,0 -1.99659,-5.92866 -1.99659,-5.92866 0,0 3.61341,-0.82216 4.83384,0.36366 z"
       id="path3932"
       inkscape:connector-curvature="0"
       sodipodi:nodetypes="sscs" />
    <rect
       transform="matrix(-0.81582817,0.57829438,-0.90395272,-0.42763242,0,0)"
       style="fill:url(#linearGradient3937);fill-opacity:1;stroke:none"
       id="rect3935"
       width="6.2924409"
       height="29.059141"
       x="927.10767"
       y="-1080.8912"
       ry="10.478057" />
    <path
       style="fill:#000000;fill-opacity:1;stroke:none"
       d="m 188.21119,959.57116 c -0.26272,0.66088 -0.40378,1.37649 -0.35489,2.1341 0.17564,2.72144 2.51444,4.78583 5.22387,4.61097 2.21904,-0.14322 3.9751,-1.747 4.45004,-3.81686 l -9.31902,-2.92821 z"
       id="path3052"
       inkscape:connector-curvature="0" />
  </g>
</svg>
